<svg viewBox="0 0 900 560" xmlns="http://www.w3.org/2000/svg">
  <rect width="900" height="560" rx="12" fill="#1d1d1f"/>
  <rect x="0" y="0" width="900" height="56" rx="12" fill="#272729"/>
  <rect x="24" y="20" width="90" height="16" rx="4" fill="#ffffff"/>
  <circle cx="820" cy="28" r="12" fill="#3a3a3c"/>
  <circle cx="860" cy="28" r="12" fill="#3a3a3c"/>
  <rect x="340" y="100" width="220" height="220" rx="20" fill="#ffffff"/>
  <rect x="366" y="126" width="168" height="168" rx="8" fill="#1d1d1f"/>
  <rect x="382" y="142" width="30" height="30" fill="#ffffff"/>
  <rect x="488" y="142" width="30" height="30" fill="#ffffff"/>
  <rect x="382" y="248" width="30" height="30" fill="#ffffff"/>
  <rect x="424" y="184" width="52" height="52" fill="#ffffff"/>
  <rect x="24" y="360" width="852" height="60" rx="14" fill="#272729"/>
  <circle cx="60" cy="390" r="14" fill="#34c759"/>
  <rect x="88" y="378" width="180" height="12" rx="4" fill="#ffffff"/>
  <rect x="88" y="396" width="120" height="10" rx="4" fill="#cccccc"/>
  <rect x="760" y="378" width="90" height="24" rx="12" fill="#34c759" opacity="0.18"/>
  <rect x="776" y="384" width="58" height="12" rx="3" fill="#34c759"/>
  <rect x="24" y="432" width="852" height="60" rx="14" fill="#272729"/>
  <circle cx="60" cy="462" r="14" fill="#ff9f0a"/>
  <rect x="88" y="450" width="180" height="12" rx="4" fill="#ffffff"/>
  <rect x="88" y="468" width="120" height="10" rx="4" fill="#cccccc"/>
  <rect x="760" y="450" width="90" height="24" rx="12" fill="#ff9f0a" opacity="0.18"/>
  <rect x="776" y="456" width="58" height="12" rx="3" fill="#ff9f0a"/>
</svg>
