<svg viewBox="0 0 900 560" xmlns="http://www.w3.org/2000/svg">
  <rect width="900" height="560" rx="12" fill="#fafafc"/>
  <rect x="0" y="0" width="900" height="56" rx="12" fill="#ffffff"/>
  <rect x="24" y="20" width="90" height="16" rx="4" fill="#1d1d1f"/>
  <circle cx="820" cy="28" r="12" fill="#d2d2d7"/>
  <circle cx="860" cy="28" r="12" fill="#d2d2d7"/>
  <rect x="24" y="88" width="220" height="140" rx="18" fill="#ffffff"/>
  <rect x="44" y="108" width="100" height="14" rx="4" fill="#7a7a7a"/>
  <rect x="44" y="140" width="140" height="28" rx="4" fill="#1d1d1f"/>
  <rect x="44" y="188" width="80" height="12" rx="4" fill="#0066cc"/>
  <rect x="260" y="88" width="220" height="140" rx="18" fill="#ffffff"/>
  <rect x="280" y="108" width="100" height="14" rx="4" fill="#7a7a7a"/>
  <rect x="280" y="140" width="140" height="28" rx="4" fill="#1d1d1f"/>
  <rect x="280" y="188" width="80" height="12" rx="4" fill="#0066cc"/>
  <rect x="496" y="88" width="220" height="140" rx="18" fill="#ffffff"/>
  <rect x="516" y="108" width="100" height="14" rx="4" fill="#7a7a7a"/>
  <rect x="516" y="140" width="140" height="28" rx="4" fill="#1d1d1f"/>
  <rect x="516" y="188" width="80" height="12" rx="4" fill="#0066cc"/>
  <rect x="24" y="252" width="852" height="284" rx="18" fill="#ffffff"/>
  <rect x="48" y="280" width="160" height="16" rx="4" fill="#1d1d1f"/>
  <rect x="48" y="320" width="804" height="1" fill="#e0e0e0"/>
  <rect x="48" y="344" width="200" height="12" rx="4" fill="#333333"/>
  <rect x="700" y="344" width="70" height="20" rx="10" fill="#0066cc" opacity="0.12"/>
  <rect x="716" y="349" width="38" height="10" rx="3" fill="#0066cc"/>
  <rect x="48" y="384" width="240" height="12" rx="4" fill="#333333"/>
  <rect x="700" y="384" width="70" height="20" rx="10" fill="#333333" opacity="0.08"/>
  <rect x="48" y="424" width="180" height="12" rx="4" fill="#333333"/>
  <rect x="700" y="424" width="70" height="20" rx="10" fill="#0066cc" opacity="0.12"/>
  <rect x="716" y="429" width="38" height="10" rx="3" fill="#0066cc"/>
  <rect x="48" y="464" width="220" height="12" rx="4" fill="#333333"/>
  <rect x="700" y="464" width="70" height="20" rx="10" fill="#0066cc" opacity="0.12"/>
  <rect x="716" y="469" width="38" height="10" rx="3" fill="#0066cc"/>
</svg>
