<svg viewBox="0 0 900 560" xmlns="http://www.w3.org/2000/svg">
  <rect width="900" height="560" rx="12" fill="#fafafc"/>
  <rect x="0" y="0" width="900" height="56" rx="12" fill="#ffffff"/>
  <rect x="24" y="20" width="90" height="16" rx="4" fill="#1d1d1f"/>
  <rect x="700" y="16" width="90" height="24" rx="12" fill="#0066cc"/>
  <rect x="24" y="88" width="852" height="200" rx="18" fill="#ffffff"/>
  <rect x="48" y="112" width="160" height="14" rx="4" fill="#1d1d1f"/>
  <polyline points="60,250 160,210 260,230 360,160 460,190 560,140 660,170 760,120"
    fill="none" stroke="#0066cc" stroke-width="4" stroke-linecap="round" stroke-linejoin="round"/>
  <circle cx="760" cy="120" r="6" fill="#0066cc"/>
  <rect x="24" y="308" width="270" height="228" rx="18" fill="#ffffff"/>
  <rect x="44" y="330" width="120" height="14" rx="4" fill="#1d1d1f"/>
  <rect x="44" y="366" width="60" height="120" rx="4" fill="#0066cc"/>
  <rect x="120" y="406" width="60" height="80" rx="4" fill="#d2d2d7"/>
  <rect x="196" y="386" width="60" height="100" rx="4" fill="#d2d2d7"/>
  <rect x="316" y="308" width="270" height="228" rx="18" fill="#ffffff"/>
  <rect x="336" y="330" width="120" height="14" rx="4" fill="#1d1d1f"/>
  <circle cx="451" cy="430" r="70" fill="none" stroke="#f0f0f0" stroke-width="20"/>
  <circle cx="451" cy="430" r="70" fill="none" stroke="#0066cc" stroke-width="20" stroke-dasharray="330 440" stroke-linecap="round" transform="rotate(-90 451 430)"/>
  <rect x="608" y="308" width="268" height="228" rx="18" fill="#ffffff"/>
  <rect x="628" y="330" width="120" height="14" rx="4" fill="#1d1d1f"/>
  <rect x="628" y="366" width="228" height="12" rx="4" fill="#333333"/>
  <rect x="628" y="390" width="228" height="12" rx="4" fill="#333333"/>
  <rect x="628" y="414" width="180" height="12" rx="4" fill="#333333"/>
  <rect x="628" y="446" width="228" height="1" fill="#e0e0e0"/>
  <rect x="628" y="466" width="120" height="14" rx="4" fill="#0066cc"/>
</svg>
